<?xml version="1.0" encoding="UTF-8"?>
<svg width="1440" height="96" viewBox="0 0 1440 96" fill="none" xmlns="http://www.w3.org/2000/svg">
  <path d="M0 0L48 42C96 48 192 54 288 60C384 66 480 66 576 69C672 72 768 75 864 75C960 75 1056 72 1152 70.5C1248 69 1344 72 1392 73.5L1440 75V0H1392C1344 0 1248 0 1152 0C1056 0 960 0 864 0C768 0 672 0 576 0C480 0 384 0 288 0C192 0 96 0 48 0H0Z" fill="#581c87" fill-opacity="0.3"/>
  <path d="M0 0L48 36C96 42 192 48 288 54C384 60 480 54 576 51C672 48 768 48 864 51C960 54 1056 60 1152 57C1248 54 1344 42 1392 36L1440 30V0H1392C1344 0 1248 0 1152 0C1056 0 960 0 864 0C768 0 672 0 576 0C480 0 384 0 288 0C192 0 96 0 48 0H0Z" fill="#6b21a8" fill-opacity="0.4"/>
  <path d="M0 0L60 24C120 30 240 36 360 42C480 48 600 48 720 45C840 42 960 36 1080 34.5C1200 33 1320 36 1380 37.5L1440 39V0H1380C1320 0 1200 0 1080 0C960 0 840 0 720 0C600 0 480 0 360 0C240 0 120 0 60 0H0Z" fill="#7e22ce" fill-opacity="0.5"/>
</svg>
