<?xml version="1.0" encoding="UTF-8"?>
<svg width="1440" height="96" viewBox="0 0 1440 96" fill="none" xmlns="http://www.w3.org/2000/svg">
  <path d="M0 96L48 54C96 48 192 42 288 36C384 30 480 30 576 27C672 24 768 21 864 21C960 21 1056 24 1152 25.5C1248 27 1344 24 1392 22.5L1440 21V96H1392C1344 96 1248 96 1152 96C1056 96 960 96 864 96C768 96 672 96 576 96C480 96 384 96 288 96C192 96 96 96 48 96H0Z" fill="#581c87" fill-opacity="0.3"/>
  <path d="M0 96L48 60C96 54 192 48 288 42C384 36 480 42 576 45C672 48 768 48 864 45C960 42 1056 36 1152 39C1248 42 1344 54 1392 60L1440 66V96H1392C1344 96 1248 96 1152 96C1056 96 960 96 864 96C768 96 672 96 576 96C480 96 384 96 288 96C192 96 96 96 48 96H0Z" fill="#6b21a8" fill-opacity="0.4"/>
  <path d="M0 96L60 72C120 66 240 60 360 54C480 48 600 48 720 51C840 54 960 60 1080 61.5C1200 63 1320 60 1380 58.5L1440 57V96H1380C1320 96 1200 96 1080 96C960 96 840 96 720 96C600 96 480 96 360 96C240 96 120 96 60 96H0Z" fill="#7e22ce" fill-opacity="0.5"/>
</svg>
