<?xml version="1.0" encoding="UTF-8"?>
<svg width="1440" height="320" viewBox="0 0 1440 320" fill="none" xmlns="http://www.w3.org/2000/svg">
  <path d="M0 320L48 180C96 160 192 140 288 120C384 100 480 100 576 90C672 80 768 70 864 70C960 70 1056 80 1152 85C1248 90 1344 80 1392 75L1440 70V320H1392C1344 320 1248 320 1152 320C1056 320 960 320 864 320C768 320 672 320 576 320C480 320 384 320 288 320C192 320 96 320 48 320H0Z" fill="#4700ff" fill-opacity="0.4"/>
  <path d="M0 320L48 200C96 180 192 160 288 140C384 120 480 140 576 150C672 160 768 160 864 150C960 140 1056 120 1152 130C1248 140 1344 180 1392 200L1440 220V320H1392C1344 320 1248 320 1152 320C1056 320 960 320 864 320C768 320 672 320 576 320C480 320 384 320 288 320C192 320 96 320 48 320H0Z" fill="#3b0764" fill-opacity="0.6"/>
  <path d="M0 320L60 240C120 220 240 200 360 180C480 160 600 160 720 170C840 180 960 200 1080 205C1200 210 1320 200 1380 195L1440 190V320H1380C1320 320 1200 320 1080 320C960 320 840 320 720 320C600 320 480 320 360 320C240 320 120 320 60 320H0Z" fill="#581c87" fill-opacity="0.8"/>
</svg>
